<svg version="1.1" xmlns="http://www.w3.org/2000/svg" xmlns:xlink="http://www.w3.org/1999/xlink" width="628" height="420"><defs/><g><g><path fill="none" stroke="#000000" paint-order="fill stroke markers" d=" M 10 10 L 618 10 L 618 410 L 10 410 L 10 10" stroke-miterlimit="10" stroke-dasharray=""/></g><g><path fill="#ffffff" stroke="none" paint-order="stroke fill markers" d=" M 10 10 L 10 33 L 152.4453125 33 L 163.9453125 21.5 L 163.9453125 10 L 10 10"/></g><g><path fill="none" stroke="#000000" paint-order="fill stroke markers" d=" M 10 10 L 10 33 L 152.4453125 33 L 163.9453125 21.5 L 163.9453125 10 L 10 10 L 10 10" stroke-miterlimit="10" stroke-dasharray=""/></g><g><g><path fill="none" stroke="none"/><text fill="#000000" stroke="none" font-family="Arial" font-size="13px" font-style="normal" font-weight="normal" text-decoration="undefined" x="281.087646484375" y="11.5" text-anchor="middle" dominant-baseline="central" transform="matrix(1 0 0 1 -190 10)">Consulter_Services</text></g></g><g><g><path fill="none" stroke="none"/><text fill="#000000" stroke="none" font-family="Arial" font-size="13px" font-style="normal" font-weight="bold" text-decoration="undefined" x="211.864990234375" y="11.5" text-anchor="middle" dominant-baseline="central" transform="matrix(1 0 0 1 -190 10)">sd</text></g></g><g><rect fill="#C0C0C0" stroke="none" x="223" y="47" width="72.736328125" height="40" transform="matrix(1 0 0 1 -190 10)" fill-opacity="0.2"/></g><g><rect fill="#ffffff" stroke="none" x="216" y="40" width="72.736328125" height="40" transform="matrix(1 0 0 1 -190 10)"/></g><g><path fill="none" stroke="#000000" paint-order="fill stroke markers" d=" M 26 50 L 98.736328125 50 L 98.736328125 90 L 26 90 L 26 50 Z Z" stroke-miterlimit="10" stroke-dasharray=""/></g><g><g><path fill="none" stroke="none"/><text fill="#000000" stroke="none" font-family="Arial" font-size="13px" font-style="normal" font-weight="bold" text-decoration="undefined" x="252.8681640625" y="53.5" text-anchor="middle" dominant-baseline="central" transform="matrix(1 0 0 1 -190 10)">Client</text></g></g><g><path fill="none" stroke="#000000" paint-order="fill stroke markers" d=" M 62.5 91 L 62.5 378" stroke-miterlimit="10" stroke-dasharray="3"/></g><g><rect fill="#C0C0C0" stroke="none" x="327" y="47" width="116.78271484375" height="40" transform="matrix(1 0 0 1 -190 10)" fill-opacity="0.2"/></g><g><rect fill="#ffffff" stroke="none" x="320" y="40" width="116.78271484375" height="40" transform="matrix(1 0 0 1 -190 10)"/></g><g><path fill="none" stroke="#000000" paint-order="fill stroke markers" d=" M 130 50 L 246.78271484375 50 L 246.78271484375 90 L 130 90 L 130 50 Z Z" stroke-miterlimit="10" stroke-dasharray=""/></g><g><g><path fill="none" stroke="none"/><text fill="#000000" stroke="none" font-family="Arial" font-size="13px" font-style="normal" font-weight="bold" text-decoration="undefined" x="378.891357421875" y="53.5" text-anchor="middle" dominant-baseline="central" transform="matrix(1 0 0 1 -190 10)">Frontend</text></g></g><g><path fill="none" stroke="#000000" paint-order="fill stroke markers" d=" M 188.5 91 L 188.5 378" stroke-miterlimit="10" stroke-dasharray="3"/></g><g><rect fill="#C0C0C0" stroke="none" x="463" y="47" width="128.37353515625" height="40" transform="matrix(1 0 0 1 -190 10)" fill-opacity="0.2"/></g><g><rect fill="#ffffff" stroke="none" x="456" y="40" width="128.37353515625" height="40" transform="matrix(1 0 0 1 -190 10)"/></g><g><path fill="none" stroke="#000000" paint-order="fill stroke markers" d=" M 266 50 L 394.37353515625 50 L 394.37353515625 90 L 266 90 L 266 50 Z Z" stroke-miterlimit="10" stroke-dasharray=""/></g><g><g><path fill="none" stroke="none"/><text fill="#000000" stroke="none" font-family="Arial" font-size="13px" font-style="normal" font-weight="bold" text-decoration="undefined" x="520.686767578125" y="53.5" text-anchor="middle" dominant-baseline="central" transform="matrix(1 0 0 1 -190 10)">Backend</text></g></g><g><path fill="none" stroke="#000000" paint-order="fill stroke markers" d=" M 330.5 91 L 330.5 378" stroke-miterlimit="10" stroke-dasharray="3"/></g><g><rect fill="#C0C0C0" stroke="none" x="639" y="47" width="134.16259765625" height="40" transform="matrix(1 0 0 1 -190 10)" fill-opacity="0.2"/></g><g><rect fill="#ffffff" stroke="none" x="632" y="40" width="134.16259765625" height="40" transform="matrix(1 0 0 1 -190 10)"/></g><g><path fill="none" stroke="#000000" paint-order="fill stroke markers" d=" M 442 50 L 576.16259765625 50 L 576.16259765625 90 L 442 90 L 442 50 Z Z" stroke-miterlimit="10" stroke-dasharray=""/></g><g><g><path fill="none" stroke="none"/><text fill="#000000" stroke="none" font-family="Arial" font-size="13px" font-style="normal" font-weight="bold" text-decoration="undefined" x="699.581298828125" y="53.5" text-anchor="middle" dominant-baseline="central" transform="matrix(1 0 0 1 -190 10)">DataBase</text></g></g><g><path fill="none" stroke="#000000" paint-order="fill stroke markers" d=" M 509.5 91 L 509.5 378" stroke-miterlimit="10" stroke-dasharray="3"/></g><g><path fill="none" stroke="#000000" paint-order="fill stroke markers" d=" M 63 128 L 181 128" stroke-miterlimit="10" stroke-dasharray=""/></g><g><path fill="#000000" stroke="none" paint-order="stroke fill markers" d=" M 170.83732514237585 132.209517756016 L 181 128 L 170.83732514237585 123.79048224398402"/></g><g><path fill="none" stroke="#000000" paint-order="fill stroke markers" d=" M 170.83732514237585 132.209517756016 L 181 128 L 170.83732514237585 123.79048224398402 L 170.83732514237585 132.209517756016" stroke-miterlimit="10" stroke-dasharray=""/></g><g><rect fill="#ffffff" stroke="none" x="262" y="102" width="101.88623046875" height="13" transform="matrix(1 0 0 1 -190 10)"/></g><g><g><path fill="none" stroke="none"/><text fill="#000000" stroke="none" font-family="Arial" font-size="13px" font-style="normal" font-weight="normal" text-decoration="undefined" x="312.943115234375" y="108.5" text-anchor="middle" dominant-baseline="central" transform="matrix(1 0 0 1 -190 10)">1 : Services Page</text></g></g><g><rect fill="#ffffff" stroke="none" x="371" y="118" width="14" height="146" transform="matrix(1 0 0 1 -190 10)"/></g><g><path fill="none" stroke="#000000" paint-order="fill stroke markers" d=" M 181 128 L 195 128 L 195 274 L 181 274 L 181 128 Z Z" stroke-miterlimit="10" stroke-dasharray=""/></g><g><path fill="none" stroke="#000000" paint-order="fill stroke markers" d=" M 195 148 L 323 148" stroke-miterlimit="10" stroke-dasharray=""/></g><g><path fill="#000000" stroke="none" paint-order="stroke fill markers" d=" M 312.83732514237585 152.209517756016 L 323 148 L 312.83732514237585 143.790482243984"/></g><g><path fill="none" stroke="#000000" paint-order="fill stroke markers" d=" M 312.83732514237585 152.209517756016 L 323 148 L 312.83732514237585 143.790482243984 L 312.83732514237585 152.209517756016" stroke-miterlimit="10" stroke-dasharray=""/></g><g><rect fill="#ffffff" stroke="none" x="391" y="122" width="116.0859375" height="13" transform="matrix(1 0 0 1 -190 10)"/></g><g><g><path fill="none" stroke="none"/><text fill="#000000" stroke="none" font-family="Arial" font-size="13px" font-style="normal" font-weight="normal" text-decoration="undefined" x="449.04296875" y="128.5" text-anchor="middle" dominant-baseline="central" transform="matrix(1 0 0 1 -190 10)">2 : ViewListServices</text></g></g><g><rect fill="#ffffff" stroke="none" x="513" y="138" width="14" height="118" transform="matrix(1 0 0 1 -190 10)"/></g><g><path fill="none" stroke="#000000" paint-order="fill stroke markers" d=" M 323 148 L 337 148 L 337 266 L 323 266 L 323 148 Z Z" stroke-miterlimit="10" stroke-dasharray=""/></g><g><path fill="none" stroke="#000000" paint-order="fill stroke markers" d=" M 337 154 L 502 154" stroke-miterlimit="10" stroke-dasharray=""/></g><g><path fill="#000000" stroke="none" paint-order="stroke fill markers" d=" M 491.8373251423759 158.209517756016 L 502 154 L 491.8373251423758 149.790482243984"/></g><g><path fill="none" stroke="#000000" paint-order="fill stroke markers" d=" M 491.8373251423759 158.209517756016 L 502 154 L 491.8373251423758 149.790482243984 L 491.8373251423759 158.209517756016" stroke-miterlimit="10" stroke-dasharray=""/></g><g><rect fill="#ffffff" stroke="none" x="522" y="128" width="174.1416015625" height="13" transform="matrix(1 0 0 1 -190 10)"/></g><g><g><path fill="none" stroke="none"/><text fill="#000000" stroke="none" font-family="Arial" font-size="13px" font-style="normal" font-weight="normal" text-decoration="undefined" x="609.07080078125" y="134.5" text-anchor="middle" dominant-baseline="central" transform="matrix(1 0 0 1 -190 10)">3 : findAll(Paginated Services)</text></g></g><g><rect fill="#ffffff" stroke="none" x="692" y="144" width="14" height="80" transform="matrix(1 0 0 1 -190 10)"/></g><g><path fill="none" stroke="#000000" paint-order="fill stroke markers" d=" M 502 154 L 516 154 L 516 234 L 502 234 L 502 154 Z Z" stroke-miterlimit="10" stroke-dasharray=""/></g><g><path fill="none" stroke="#000000" paint-order="fill stroke markers" d=" M 502 210 L 337 210" stroke-miterlimit="10" stroke-dasharray="3"/></g><g><path fill="none" stroke="#000000" paint-order="fill stroke markers" d=" M 347.1626748576241 205.790482243984 L 337 210 L 347.1626748576241 214.209517756016" stroke-miterlimit="10" stroke-dasharray=""/></g><g><rect fill="#ffffff" stroke="none" x="576" y="204" width="65.74267578125" height="13" transform="matrix(1 0 0 1 -190 10)"/></g><g><g><path fill="none" stroke="none"/><text fill="#000000" stroke="none" font-family="Arial" font-size="13px" font-style="normal" font-weight="normal" text-decoration="undefined" x="608.871337890625" y="210.5" text-anchor="middle" dominant-baseline="central" transform="matrix(1 0 0 1 -190 10)">4 : services</text></g></g><g><path fill="none" stroke="#000000" paint-order="fill stroke markers" d=" M 323 226 L 195 226" stroke-miterlimit="10" stroke-dasharray="3"/></g><g><path fill="none" stroke="#000000" paint-order="fill stroke markers" d=" M 205.16267485762415 221.790482243984 L 195 226 L 205.16267485762415 230.209517756016" stroke-miterlimit="10" stroke-dasharray=""/></g><g><rect fill="#ffffff" stroke="none" x="416" y="220" width="65.025390625" height="13" transform="matrix(1 0 0 1 -190 10)"/></g><g><g><path fill="none" stroke="none"/><text fill="#000000" stroke="none" font-family="Arial" font-size="13px" font-style="normal" font-weight="normal" text-decoration="undefined" x="448.5126953125" y="226.5" text-anchor="middle" dominant-baseline="central" transform="matrix(1 0 0 1 -190 10)">5 : Ok(200)</text></g></g><g><path fill="none" stroke="#000000" paint-order="fill stroke markers" d=" M 181 242 L 63 242" stroke-miterlimit="10" stroke-dasharray="3"/></g><g><path fill="none" stroke="#000000" paint-order="fill stroke markers" d=" M 73.16267485762415 237.790482243984 L 63 242 L 73.16267485762415 246.209517756016" stroke-miterlimit="10" stroke-dasharray=""/></g><g><rect fill="#ffffff" stroke="none" x="241" y="236" width="141.3876953125" height="13" transform="matrix(1 0 0 1 -190 10)"/></g><g><g><path fill="none" stroke="none"/><text fill="#000000" stroke="none" font-family="Arial" font-size="13px" font-style="normal" font-weight="normal" text-decoration="undefined" x="311.69384765625" y="242.5" text-anchor="middle" dominant-baseline="central" transform="matrix(1 0 0 1 -190 10)">6 : ViewServiceCatalog</text></g></g></g></svg>